<svg width="30" height="35" viewBox="0 0 30 35" fill="none" xmlns="http://www.w3.org/2000/svg">
<path fill-rule="evenodd" clip-rule="evenodd" d="M23 10.3672C23 15.1449 19.1944 19.018 14.5 19.018C9.80557 19.018 6 15.1449 6 10.3672C6 5.58942 9.80557 1.71631 14.5 1.71631C19.1944 1.71631 23 5.58942 23 10.3672Z" stroke="#F10C00" stroke-width="2"/>
<path d="M9 10.876C9 7.50338 11.6862 4.76953 15 4.76953" stroke="#F10C00" stroke-width="2" stroke-linecap="round" stroke-linejoin="round"/>
<path fill-rule="evenodd" clip-rule="evenodd" d="M2.40043 33.2665C1.57233 33.2665 0.918762 32.541 1.0082 31.7077C1.77528 24.5718 7.74704 19.0181 15 19.0181C22.2531 19.0181 28.2247 24.5718 28.9918 31.7077C29.0814 32.541 28.4278 33.2665 27.5995 33.2665H2.40043Z" stroke="#F10C00" stroke-width="2"/>
</svg>
